<svg width="28" height="28" fill="none" xmlns="http://www.w3.org/2000/svg"><path d="M25.076 5.462a14.975 14.975 0 011.683 2.786l-12.745 9.407-5.352-3.365v-4.028l5.324 3.338 11.09-8.138z" fill="#21A038"/><path d="M3.228 14.014c0-.193 0-.359.027-.552l-3.227-.165c0 .22-.028.469-.028.69a13.97 13.97 0 004.11 9.903L6.4 21.6a10.603 10.603 0 01-3.172-7.586z" fill="url(#paint0_linear_1_2906)"/><path d="M13.986 3.255c.193 0 .359 0 .552.028l.165-3.228c-.22 0-.468-.027-.69-.027a13.97 13.97 0 00-9.903 4.11l2.29 2.29a10.651 10.651 0 017.586-3.173z" fill="url(#paint1_linear_1_2906)"/><path d="M13.986 24.773c-.193 0-.358 0-.552-.028l-.165 3.227c.22 0 .469.028.69.028a13.97 13.97 0 009.903-4.11l-2.29-2.29c-1.93 1.986-4.607 3.172-7.586 3.172z" fill="url(#paint2_linear_1_2906)"/><path d="M20.055 5.131l2.731-2.014A14.013 14.013 0 0013.986 0v3.228c2.262.027 4.359.717 6.07 1.903z" fill="url(#paint3_linear_1_2906)"/><path d="M28 14.014c0-.855-.083-1.683-.22-2.51l-3.008 2.234v.276c0 3.172-1.379 6.014-3.558 7.972l2.18 2.4A13.974 13.974 0 0028 14.014z" fill="#21A038"/><path d="M13.986 24.773c-3.172 0-6.014-1.38-7.972-3.56l-2.4 2.18A13.92 13.92 0 0013.986 28v-3.227z" fill="url(#paint4_linear_1_2906)"/><path d="M6.786 6.041l-2.18-2.4A13.92 13.92 0 000 14.014h3.228c0-3.145 1.379-6.014 3.558-7.973z" fill="url(#paint5_linear_1_2906)"/><defs><linearGradient id="paint0_linear_1_2906" x1="3.765" y1="23.514" x2=".471" y2="13.991" gradientUnits="userSpaceOnUse"><stop offset=".144" stop-color="#F2E913"/><stop offset=".304" stop-color="#E7E518"/><stop offset=".582" stop-color="#CADB26"/><stop offset=".891" stop-color="#A3CD39"/></linearGradient><linearGradient id="paint1_linear_1_2906" x1="5.017" y1="3.761" x2="13.387" y2=".572" gradientUnits="userSpaceOnUse"><stop offset=".059" stop-color="#0FA8E0"/><stop offset=".538" stop-color="#0099F9"/><stop offset=".923" stop-color="#0291EB"/></linearGradient><linearGradient id="paint2_linear_1_2906" x1="13.081" y1="25.263" x2="23.057" y2="23.008" gradientUnits="userSpaceOnUse"><stop offset=".123" stop-color="#A3CD39"/><stop offset=".285" stop-color="#86C339"/><stop offset=".869" stop-color="#21A038"/></linearGradient><linearGradient id="paint3_linear_1_2906" x1="13.317" y1="2.067" x2="21.613" y2="4.627" gradientUnits="userSpaceOnUse"><stop offset=".057" stop-color="#0291EB"/><stop offset=".79" stop-color="#0C8ACB"/></linearGradient><linearGradient id="paint4_linear_1_2906" x1="4.422" y1="23.927" x2="13.331" y2="27.256" gradientUnits="userSpaceOnUse"><stop offset=".132" stop-color="#F2E913"/><stop offset=".298" stop-color="#EBE716"/><stop offset=".531" stop-color="#D9E01F"/><stop offset=".802" stop-color="#BBD62D"/><stop offset=".983" stop-color="#A3CD39"/></linearGradient><linearGradient id="paint5_linear_1_2906" x1="2.453" y1="14.41" x2="6.015" y2="5.144" gradientUnits="userSpaceOnUse"><stop offset=".07" stop-color="#A3CD39"/><stop offset=".26" stop-color="#81C55F"/><stop offset=".922" stop-color="#0FA8E0"/></linearGradient></defs></svg>