<svg width="25" height="26" fill="none" xmlns="http://www.w3.org/2000/svg"><path d="M11.493 0c6.347 0 11.493 5.176 11.493 11.563 0 2.168-.602 4.201-1.62 5.933-.034.05-.118.033-.134-.034-.401-2.84-2.122-4.403-4.628-4.874-.217-.033-.25-.168.034-.202.768-.067 1.854-.05 2.422.05.033-.285.05-.587.05-.89 0-4.218-3.408-7.647-7.6-7.647-4.193 0-7.601 3.429-7.601 7.647 0 4.219 3.408 7.647 7.6 7.647h.351a10.374 10.374 0 01-.15-2.067c.017-.47.117-.538.317-.168 1.053 1.832 2.556 3.479 5.496 4.134 2.406.538 4.811 1.16 7.4 4.47.234.287-.117.589-.384.354-2.64-2.353-5.045-3.126-7.233-3.126-2.456.017-4.126.336-5.813.336C5.145 23.126 0 17.949 0 11.563 0 5.176 5.145 0 11.493 0zm5.846 18.269c.268 0 .568.117.836.353.517.437.668.94.4 1.31a.878.878 0 01-.684.303c-.284 0-.585-.1-.785-.286-.468-.403-.602-1.075-.301-1.445.117-.151.3-.235.534-.235zm2.54-1.9c.434.169.6.824.634 1.11.067.52-.083.723-.25.723-.167 0-.401-.202-.652-.606-.25-.403-.35-.857-.217-1.092.084-.151.267-.219.485-.134z" fill="#FF8C00"/></svg>