<svg width="28" height="28" fill="none" xmlns="http://www.w3.org/2000/svg"><g clip-path="url(#clip0_1_2731)"><path d="M14 26.485c6.895 0 12.485-5.59 12.485-12.485S20.895 1.515 14 1.515 1.515 7.105 1.515 14 7.105 26.485 14 26.485z" fill="#fff"/><path d="M14 0a14 14 0 1014 14A13.96 13.96 0 0014.081 0H14zm.237 14.475L12.78 19.39h7.796a.393.393 0 01.407.38v.128l-.678 2.34a.505.505 0 01-.508.372H7.864l2-6.813-2.237.678.509-1.56 2.237-.678 2.813-9.559a.512.512 0 01.509-.373h3.017a.393.393 0 01.407.38v.129l-2.373 8.067 2.237-.678-.474 1.628-2.272.644z" fill="#345D9D"/></g><defs><clipPath id="clip0_1_2731"><path fill="#fff" d="M0 0h28v28H0z"/></clipPath></defs></svg>