<svg width="28" height="28" fill="none" xmlns="http://www.w3.org/2000/svg"><g clip-path="url(#clip0_1_2029)"><path d="M27.58 17.387c-1.87 7.5-9.467 12.064-16.968 10.194C3.115 25.71-1.45 18.114.421 10.615 2.29 3.114 9.886-1.451 17.385.419c7.5 1.87 12.064 9.467 10.194 16.968z" fill="#F7931A"/><path d="M20.173 12.005c.279-1.863-1.14-2.864-3.079-3.532l.63-2.524-1.537-.383-.613 2.457a63.71 63.71 0 00-1.23-.29l.617-2.473-1.536-.383-.63 2.523a50.734 50.734 0 01-.98-.23l.002-.008-2.12-.53-.408 1.642s1.14.26 1.116.277c.622.155.735.567.716.894l-.717 2.875c.043.01.099.026.16.05l-.162-.04-1.005 4.028c-.076.19-.27.473-.704.365.015.023-1.117-.278-1.117-.278l-.762 1.758 1.999.498c.372.094.736.191 1.095.283l-.636 2.553 1.535.383.63-2.526c.419.114.825.219 1.224.318l-.628 2.513 1.537.383.635-2.548c2.62.496 4.59.296 5.419-2.073.668-1.908-.033-3.008-1.412-3.726 1.004-.231 1.76-.892 1.962-2.255zm-3.51 4.922c-.474 1.908-3.686.877-4.728.618l.844-3.382c1.041.26 4.38.775 3.884 2.764zm.476-4.95c-.434 1.736-3.107.854-3.974.638l.765-3.067c.867.216 3.66.62 3.209 2.43z" fill="#fff"/></g><defs><clipPath id="clip0_1_2029"><path fill="#fff" d="M0 0h28v28H0z"/></clipPath></defs></svg>