<svg width="40" height="40" fill="none" xmlns="http://www.w3.org/2000/svg"><path d="M24.986 31h-9.973C11.444 31 9 28.554 9 24.986v-9.973C9 11.446 11.446 9 15.013 9h9.973C28.553 9 31 11.445 31 15.013v9.973C31 28.556 28.555 31 24.986 31z" fill="#E31A3C"/><path fill-rule="evenodd" clip-rule="evenodd" d="M14.806 24.925h10.417v-1.171H14.806v1.171zm5.179-12l1.383 1.31-1.383 1.284-1.354-1.284 1.354-1.31zm7.298 5.636c-1.854-1.535-4.267-2.51-6.945-2.595v7.286s2.001-.028 2.531 0a.639.639 0 00.589-.392l1.854-4.242c.176.112.352.224.5.336l-1.883 4.298h1.324l2.03-4.69v-.001zm-5.061 3.628c-.147.028-.648 0-.648 0v-4.94c.943.14 1.825.42 2.68.81l-1.737 3.964c-.118.196-.295.168-.295.168v-.002zm-9.505-3.628c1.854-1.535 4.297-2.51 6.945-2.595v7.286s-2-.028-2.53 0c-.443 0-.59-.392-.59-.392l-1.853-4.242c-.176.112-.354.224-.5.336l1.912 4.298h-1.353l-2.03-4.69v-.001zm5.062 3.628c.146.028.647 0 .647 0v-4.94c-.942.14-1.825.42-2.648.81l1.707 3.964c.119.196.294.168.294.168v-.002z" fill="#FECC00"/><rect x="21" y="6" width="12" height="12" rx="6" fill="#3C3C52"/><path d="M26.73 16.318V8.136h.524v8.182h-.525zm1.39-5.481a.81.81 0 00-.33-.6c-.193-.144-.456-.215-.789-.215-.226 0-.417.032-.572.096a.805.805 0 00-.358.259.623.623 0 00-.121.377c-.005.117.02.22.073.307a.766.766 0 00.227.227 1.8 1.8 0 00.332.163c.126.044.26.083.403.115l.588.14c.286.064.548.15.786.256.239.107.446.238.62.393.175.156.31.339.406.55.098.21.148.453.15.725a1.81 1.81 0 01-.306 1.042c-.2.292-.49.519-.87.681-.377.16-.832.24-1.364.24-.529 0-.989-.081-1.381-.243a2.024 2.024 0 01-.914-.72c-.217-.319-.331-.714-.342-1.185h1.34c.014.22.077.403.188.55.113.145.263.254.45.329.19.072.404.108.643.108.234 0 .438-.034.61-.102a.935.935 0 00.406-.284.657.657 0 00.144-.419.544.544 0 00-.131-.37.992.992 0 00-.377-.256 3.843 3.843 0 00-.604-.192l-.713-.179c-.552-.134-.988-.344-1.307-.63-.32-.285-.479-.67-.477-1.153a1.716 1.716 0 01.317-1.04c.215-.295.51-.526.885-.693a3.128 3.128 0 011.279-.249c.486 0 .91.083 1.272.25.364.166.647.397.85.693.202.296.307.64.313 1.029H28.12z" fill="#F7931A"/></svg>