<svg width="28" height="25" fill="none" xmlns="http://www.w3.org/2000/svg"><g clip-path="url(#clip0_1_3017)" fill-rule="evenodd" clip-rule="evenodd"><path d="M5.127.123L.022 11.13a.218.218 0 00.044.249l13.789 13.56a.208.208 0 00.291 0l13.788-13.56a.215.215 0 00.045-.248L22.874.123a.21.21 0 00-.077-.09.203.203 0 00-.111-.034H5.317a.21.21 0 00-.19.123z" fill="#50AF95"/><path d="M15.771 12.26c-.099.008-.61.039-1.75.039a37.37 37.37 0 01-1.779-.039c-3.506-.158-6.124-.785-6.124-1.535 0-.75 2.618-1.376 6.124-1.537v2.448c.23.017.886.057 1.794.057 1.089 0 1.634-.047 1.732-.056V9.19c3.5.16 6.111.787 6.111 1.535 0 .748-2.61 1.375-6.11 1.534l.002.001zm0-3.323v-2.19h4.884v-3.34H7.359v3.34h4.883v2.189c-3.969.187-6.953.994-6.953 1.96 0 .968 2.984 1.774 6.953 1.962v7.019h3.529v-7.022c3.96-.187 6.939-.993 6.939-1.959 0-.966-2.977-1.772-6.94-1.96h.002z" fill="#fff"/></g><defs><clipPath id="clip0_1_3017"><path fill="#fff" d="M0 0h28v25H0z"/></clipPath></defs></svg>