<svg width="30" height="10" fill="none" xmlns="http://www.w3.org/2000/svg"><g clip-path="url(#clip0_1_2815)"><path d="M2 0l-.501 1.308h6.938L8.937 0H2zm-.753 1.96l-.5 1.309h6.938l.5-1.309H1.248zm-.75 1.962l-.5 1.308h6.938l.5-1.308H.5z" fill="#0AF"/><path d="M14.748 5.73v.028c.317.11.62.305.779.43.49.388.706.9.706 1.566 0 1.096-.606 1.886-1.601 2.135-.303.084-.62.111-1.211.111h-3.014V1.987h2.668c.548 0 .923.027 1.255.11.966.25 1.6.888 1.6 1.9 0 .54-.201.998-.533 1.303a2.024 2.024 0 01-.649.43zm-2.667.846v2.107h1.154c.346 0 .663-.027.894-.235.23-.209.331-.472.331-.819a1.11 1.11 0 00-.217-.692c-.245-.292-.548-.36-1.066-.36H12.08v-.001zm-.015-1.387h.938c.288 0 .432 0 .576-.041.39-.111.635-.444.635-.901 0-.54-.26-.777-.635-.888-.159-.041-.317-.055-.635-.055h-.879v1.885zM18.742 10V3.331h-2.408V1.987h6.692L22.55 3.33h-2.134V10h-1.673zm4.803 0V1.987h5.422l-.476 1.344h-3.288v1.775h1.341c1.082 0 1.645.25 2.034.569.303.25.822.804.822 1.9 0 1.08-.534 1.677-.98 1.982-.52.346-1.068.443-2.178.443h-2.697zm1.658-1.344h1.255c.476 0 .764-.111.966-.36.101-.126.245-.348.245-.763 0-.416-.144-.707-.433-.915-.172-.125-.404-.194-.793-.194h-1.24v2.232z" fill="#EEEFF8"/></g><defs><clipPath id="clip0_1_2815"><path fill="#fff" d="M0 0h30v10H0z"/></clipPath></defs></svg>