<svg width="12" height="18" fill="none" xmlns="http://www.w3.org/2000/svg"><path d="M5.496 18V0h1.215v18H5.496zM8.72 5.941c-.06-.567-.314-1.007-.763-1.321-.45-.315-1.06-.472-1.83-.472-.524 0-.966.07-1.326.211-.36.136-.637.326-.83.57-.187.244-.281.52-.281.83-.01.257.047.482.17.675.129.192.304.358.526.499.222.136.48.255.77.358.292.099.603.183.934.254l1.363.309a9.98 9.98 0 011.822.562 5.581 5.581 0 011.437.865c.405.342.719.746.94 1.21.228.464.344.996.349 1.596-.005.881-.242 1.645-.711 2.292-.464.642-1.136 1.141-2.015 1.498-.874.351-1.928.527-3.163.527-1.225 0-2.291-.178-3.2-.534-.904-.357-1.61-.884-2.118-1.582-.504-.704-.768-1.573-.793-2.61h3.104c.034.484.18.887.437 1.21.261.319.61.56 1.044.725.44.159.936.239 1.49.239.542 0 1.014-.075 1.414-.225.405-.15.718-.359.94-.626a1.4 1.4 0 00.334-.921 1.16 1.16 0 00-.304-.816c-.197-.22-.489-.408-.874-.562a9.225 9.225 0 00-1.4-.422l-1.652-.394c-1.28-.296-2.29-.757-3.031-1.386C.764 7.873.396 7.027.4 5.963c-.005-.872.24-1.634.733-2.286.5-.651 1.183-1.16 2.052-1.525.87-.366 1.857-.549 2.963-.549 1.126 0 2.109.183 2.948.549.845.365 1.502.874 1.97 1.525.47.652.712 1.407.727 2.264H8.719z" fill="#F7931A"/></svg>