<svg width="22" height="22" fill="none" xmlns="http://www.w3.org/2000/svg"><path d="M22 17.842C22 20.515 20.515 22 17.842 22H4.158C1.485 22 0 20.515 0 17.842V4.158C0 1.485 1.485 0 4.158 0h13.69C20.514 0 22 1.485 22 4.158v13.684z" fill="#FEE600"/><path d="M14.146 9.927v-2.1l.759-.76v1.821l.66.66 2.656-2.657.655.655c-.006-.495-.105-1.93-1.32-3.124-1.309-1.265-2.728-.693-3.212-.209l-2.651 2.651.677.676L11 8.921l-1.37-1.37.677-.676-2.651-2.651c-.484-.484-1.903-1.056-3.212.209-1.216 1.193-1.315 2.629-1.32 3.124l.654-.655L6.435 9.56l.66-.66V7.08l.759.758v2.101L8.921 11l-5.258 5.258 2.079 2.073L11 13.08l5.258 5.258 2.079-2.073L13.079 11l1.067-1.073z" fill="#2B2D33"/></svg>