<svg width="12" height="16" fill="none" xmlns="http://www.w3.org/2000/svg"><path d="M7.024 10.21H0V7.5h6.946c.524 0 .953-.094 1.288-.281a1.72 1.72 0 00.74-.797c.159-.344.238-.75.238-1.219 0-.458-.079-.872-.238-1.242a1.979 1.979 0 00-.727-.883c-.326-.219-.734-.328-1.223-.328H4.642V16H1.873V0h5.15c1.044 0 1.937.227 2.68.68a4.446 4.446 0 011.712 1.843c.395.776.59 1.657.586 2.641.004 1.031-.195 1.925-.599 2.68a4.234 4.234 0 01-1.725 1.75c-.747.411-1.631.617-2.652.617zm.495 1.032v2.711H0v-2.71h7.52z" fill="#F7931A"/></svg>