<svg width="40" height="40" fill="none" xmlns="http://www.w3.org/2000/svg"><path d="M24.986 31h-9.973C11.444 31 9 28.554 9 24.986v-9.973C9 11.446 11.446 9 15.013 9h9.973C28.553 9 31 11.445 31 15.013v9.973C31 28.556 28.555 31 24.986 31z" fill="#E31A3C"/><path fill-rule="evenodd" clip-rule="evenodd" d="M14.806 24.925h10.417v-1.171H14.806v1.171zm5.179-12l1.383 1.31-1.383 1.284-1.354-1.284 1.354-1.31zm7.298 5.636c-1.854-1.535-4.267-2.51-6.945-2.595v7.286s2.001-.028 2.531 0a.639.639 0 00.589-.392l1.854-4.242c.176.112.352.224.5.336l-1.883 4.298h1.324l2.03-4.69v-.001zm-5.061 3.628c-.147.028-.648 0-.648 0v-4.94c.943.14 1.825.42 2.68.81l-1.737 3.964c-.118.196-.295.168-.295.168v-.002zm-9.505-3.628c1.854-1.535 4.297-2.51 6.945-2.595v7.286s-2-.028-2.53 0c-.443 0-.59-.392-.59-.392l-1.853-4.242c-.176.112-.354.224-.5.336l1.912 4.298h-1.353l-2.03-4.69v-.001zm5.062 3.628c.146.028.647 0 .647 0v-4.94c-.942.14-1.825.42-2.648.81l1.707 3.964c.119.196.294.168.294.168v-.002z" fill="#FECC00"/><rect x="21" y="6" width="12" height="12" rx="6" fill="#3C3C52"/><path d="M27.902 13.132h-3.486v-1.11h3.448c.26 0 .473-.038.64-.114a.78.78 0 00.367-.326c.079-.14.118-.307.118-.499 0-.187-.04-.357-.118-.508a.867.867 0 00-.361-.361 1.243 1.243 0 00-.608-.134H26.72v5.42h-1.374V8.955h2.556c.518 0 .961.092 1.33.278.37.183.654.434.85.754.196.317.293.678.29 1.08.003.422-.096.787-.296 1.096-.2.31-.486.548-.857.716-.37.169-.81.253-1.317.253zm.246.422v1.109h-3.732v-1.11h3.732z" fill="#F7931A"/></svg>