<svg width="28" height="24" fill="none" xmlns="http://www.w3.org/2000/svg"><g clip-path="url(#clip0_1_3108)" fill-rule="evenodd" clip-rule="evenodd"><path d="M28 10.11l-.363 1.116c-.194.579-.826 1.532-2.005 1.63.13.523.417 1.108 1.05 1.36l.913.36-.493.823a2.15 2.15 0 01-.806.725 2.27 2.27 0 01-1.073.257 3.01 3.01 0 01-.592-.059c-.049.205-.108.41-.18.613-.278.799-.038 1.355-.028 1.378l.44.888-1.01.257a2.963 2.963 0 01-.688.082 2.218 2.218 0 01-.83-.156 2.918 2.918 0 01-.471.61c-.644.636-1.557.957-2.714.957l-.83-.01 1.7.68-1.27.592c-.451.212-1.03.482-1.614.687l.164.425-.448.196c-.04.017-.891.382-2.308.463 0 0-.34.016-.53.016s-.534-.015-.534-.015c-1.426-.078-2.284-.447-2.324-.464l-.446-.196.162-.423a17.53 17.53 0 01-1.597-.68l-1.294-.6 1.706-.681-.826.01h-.004c-1.156 0-2.07-.32-2.713-.956a2.948 2.948 0 01-.472-.61 2.215 2.215 0 01-.83.156c-.38 0-.683-.081-.696-.085L3.141 19.2l.45-.904v-.001c.011-.025.24-.576-.035-1.36a6.049 6.049 0 01-.18-.615c-.193.04-.39.06-.588.06-.938 0-1.597-.525-1.878-.973l-.497-.832.912-.36c.632-.252.92-.837 1.05-1.36C1.18 12.753.558 11.801.37 11.226L0 10.11l1.224.036c.09 0 .827-.02 1.542-.518a1.181 1.181 0 01-.163.011c-.735 0-1.45-.426-1.736-1.036l-.514-1.1a7.47 7.47 0 001.253-.071c.029-.006.48-.08.998-.588a1.958 1.958 0 011.992-.488c-.028-.09-.05-.18-.067-.272-.15-.93.403-1.668.515-1.807l.919-1.081.561 1.27s.14.29.392.434c.077-.372.265-.79.667-1.188.754-.75 1.675-.864 2.157-.864.224 0 .383.024.434.032l.036.006 1.042.197a3.485 3.485 0 00-.443-1.007l-.602-.901 1.515.165.482-.983.936.463.862-.82.864.819.936-.462.482.983 1.516-.165-.602.9a3.51 3.51 0 00-.443 1.01l1.091-.207c.039-.006.198-.03.422-.03.482 0 1.402.113 2.159.864.4.4.59.816.665 1.188.253-.144.394-.44.396-.445l.56-1.262.905 1.074s.69.785.527 1.816a2.151 2.151 0 01-.07.273 1.955 1.955 0 011.992.488c.541.53 1.009.588 1.014.588 0 0 .592.079 1.241.07l-.517 1.102c-.285.61-1 1.036-1.737 1.036-.038 0-.075-.005-.113-.008a2.22 2.22 0 00-.048-.004 2.918 2.918 0 001.555.518L28 10.11z" fill="#fff"/><path d="M16.312 14.507H9.85V10.93c0-.347-.106-.696-.23-1.018h2.912c.277.264.548.429.806.52a.971.971 0 00.046.651c.102.212.285.375.551.484.03.261.202.654.678.828-.21.202-.412.392-.494.469l-1.933-.03a.34.34 0 01-.166-.159l.316.05h.02a.13.13 0 00.081-.028.115.115 0 00.02-.163.125.125 0 00-.082-.048l-.388-.059.431-1.427-.408-.824-.653.664-.04 1.482-.44-.065a.13.13 0 00-.127.056.118.118 0 00.006.134.13.13 0 00.082.049l.184.027a1.31 1.31 0 00-.114.068l-.037.026-.011.043c-.107.417.134.812.395.989l-.009.053a.227.227 0 00.045.178.252.252 0 00.203.1c.055 0 .11-.018.153-.052a.235.235 0 00.086-.133c.097.011.186.014.247.014h.052l2.535.44.044-.029c.201-.134.973-.673 1.224-.852.07.057.147.11.241.152a.965.965 0 00.236.988zm-6.462.242h8.307l.003 3c0 .994-.61 1.688-1.567 1.913l.16-.801.026-.15c.047.02.095.034.145.043.055.01.11.016.166.016a.617.617 0 00.482-.23l.124-.137-.1-.15a16.044 16.044 0 00-.404-.585 3.142 3.142 0 01-.099-.14c-.195-.28-.439-.63-.927-.63h-.045a.737.737 0 00-.205.042 1.153 1.153 0 00-.477-.105c-.202 0-.372.053-.486.09l-.03.01a.324.324 0 01-.054.013l-.914-.086c-.012-.002-.05-.023-.094-.075v-.004l.197-.076c-.056-.633-.688-1.02-1.04-1.153a.354.354 0 00-.103-.178l-.196-.178-.173.198-.085.101-1.28-.504.833 1.002-.328.479c-.121.123.011.245.011.245l.34.225.352-.126.022.002.013.002a1.486 1.486 0 00-.032.175 1.952 1.952 0 01-.022.133l-.611-.115-.642.348a.712.712 0 00-.252.88l.071.15.101.211.225-.09a.016.016 0 00.007-.003c-.08.247-.047.483.097.637l.136.164.182.22.2-.204c.057-.057.247-.261.306-.436l.043-.134-.097-.102-.016-.018.11-.173.797.18.18.04.095-.152.051-.083c.01-.017.013-.02.05-.02a.41.41 0 01.086.01c.302.054.579.082.825.082.24 0 .382-.01.551-.064l.444.484-.263.778-.011.046c-.497.039-.739.144-1.03.424-.425-.405-.726-.447-1.866-.447-1.365 0-2.29-.768-2.29-1.995V14.75h.001z" fill="#FFDD2D"/><path d="M12.005 2.18l.218.022.094-.19.274-.563.509.252.197.097.706-.672.55.523.158.149.197-.097.506-.252.279.563.092.19.217-.022.208-.024a4.585 4.585 0 00-.216.563c-.55-.294-1.263-.46-1.991-.46-.724 0-1.437.166-1.989.46a4.697 4.697 0 00-.216-.563l.207.024zm1.998.372c.974 0 1.754.31 2.185.64 0 0 .127-.74.564-1.39l-.785.084-.41-.836-.789.39-.765-.726-.763.725-.79-.39-.41.838-.785-.086c.437.652.565 1.39.565 1.39.434-.33 1.21-.64 2.183-.64zm2.359 19.788l-.38-1.002c.452-.132 1.228-.416 1.576-.604l-.232.73.786.25a9.742 9.742 0 01-1.75.626zm-2.357.9c-.914 0-1.958-.201-2.266-.307l.467-1.212c.388.108 1.194.224 1.78.22h.037c.585.004 1.39-.112 1.78-.221l.466 1.214c-.307.105-1.35.306-2.264.306zm-4.108-1.526l.787-.25-.233-.73c.347.188 1.125.473 1.575.604l-.38 1.002a9.8 9.8 0 01-1.75-.626zm8.25-.223l-.478-.176.132-.475.146-.517s-.848.442-2.044.773c-.339.093-.595.136-.595.136v.352s-.64.106-1.285.106h-.037a8.978 8.978 0 01-1.285-.106v-.352s-.257-.043-.596-.136c-1.195-.332-2.042-.773-2.042-.773l.143.517.136.475-.48.176-.534.19.18.084c.59.276 1.35.63 2.05.815l-.182.478s.982.43 2.617.434h.022c1.637-.005 2.619-.434 2.619-.434l-.185-.478c.71-.187 1.481-.547 2.072-.825l.157-.073-.53-.19h-.001zm7.086-5.942c.779 0 1.118-.566 1.118-.566-1.866-.743-1.681-3.141-1.681-3.141s.242.173.714.19h.049c1.027 0 1.375-1.056 1.375-1.056h-.02c-.188 0-1.715-.042-2.796-1.36l-.094-.114c-.67-.819-1.25-1.527-2.35-1.814l-.113-.019-.025-.11c-.032-.17.088-.327.361-.498 1.588-.997.51-2.27.51-2.27s-.453 1.017-1.467 1.017h-.038l-.038-.001-.02-.001a2.105 2.105 0 01-.32-.032l-.186-.035s.29-.755-.409-1.448c-.526-.524-1.165-.613-1.535-.613-.186 0-.304.024-.304.024.35.44.604 1.17.2 1.62-.136.15-.347.245-.556.338-.328.148-.65.291-.65.645 0 .245.238.53.666.786 1.285.776 2.56 1.808 3.09 3.189.664 1.722-.083 2.866-1.149 3.522 0 0 .335.295.819.332.099.01.195.014.285.014 1.024 0 1.553-.46 1.553-.46s-.088.636-.62 1.227c-.492.545-1.136.866-2.12.88 0 0-.032.438.405.817.278.24.921.317.921.317s-1.204.235-1.338 1.944c-.072.925-.319 1.247-.319 1.247h.022c2.797 0 2.726-2.303 2.726-2.303s.194.682.975.86c.094.024.195.033.29.033.251 0 .47-.056.47-.056s-.409-.828-.003-1.985c.335-.96.282-1.672.282-1.672s.376.547 1.311.552h.01zm1.898-4.475c-.017.052-.439 1.282-1.698 1.282l-.06-.002a2.248 2.248 0 01-.36-.04c.052.67.309 1.91 1.467 2.371l.354.141-.191.32-.001.002a1.64 1.64 0 01-.612.537 1.723 1.723 0 01-.806.187 2.238 2.238 0 01-1.007-.227 5.535 5.535 0 01-.267 1.129c-.35.999-.03 1.702-.012 1.74v.001l.173.351-.392.1h-.002c-.034.009-.27.065-.553.065a1.7 1.7 0 01-1.073-.378 2.51 2.51 0 01-.608.988c-.539.532-1.317.801-2.332.801l-.616-.007.34-.5c.003-.002.199-.295.26-1.086.072-.947.446-1.5.813-1.818a1.208 1.208 0 01-.288-.18c-.541-.467-.518-1.017-.515-1.077l.023-.297.308-.004c.828-.014 1.405-.25 1.873-.77.101-.113.19-.235.268-.364a3.389 3.389 0 01-.948.132 5.054 5.054 0 01-.314-.013 1.89 1.89 0 01-1.017-.417l-.323-.284.368-.226c.819-.505 1.663-1.461 1.016-3.139-.418-1.09-1.386-2.079-2.954-3.025-.53-.322-.823-.7-.823-1.062 0-.558.488-.78.844-.936l.033-.016c.163-.074.327-.15.41-.241.276-.307.043-.895-.214-1.214l-.325-.413.529-.101.014-.002a2.35 2.35 0 01.355-.025c.398 0 1.158.092 1.779.709.515.512.582 1.057.555 1.41l.12.007.033.002h.059c.766 0 1.134-.771 1.156-.82l.002-.002.219-.494.35.416c.023.026.54.645.415 1.42-.084.516-.421.96-1.001 1.326a1.12 1.12 0 00-.139.1c1.089.34 1.699 1.084 2.34 1.867l.007.007.093.111c.985 1.203 2.376 1.238 2.542 1.238h.002l.472-.014-.14.433zm-3.115-3.981c.235 0 .508.077.767.334.812.79 1.567.835 1.567.835-.137.291-.535.547-.947.547a.89.89 0 01-.285-.045c-.258-.083-.439-.298-.656-.555-.253-.302-.554-.66-1.084-.93 0 0 .273-.186.638-.186zm-.798.471c.47.24.744.562.984.847l.01.012c.232.275.454.536.8.647.124.04.256.06.39.06.527 0 1.054-.309 1.255-.736l.202-.428-.488-.028c-.022 0-.65-.056-1.347-.74a1.42 1.42 0 00-1.008-.427c-.44 0-.77.203-.828.238l-.005.003-.448.303.483.25zm.22 4.288v-.017c.43 2.151 1.385 2.703 1.385 2.703-.76-.36-1.238-1.313-1.355-1.656-.125 1.89-1.086 3.202-2.21 4.465-.584.654-.786 1.291-.786 1.291s.112-.721.616-1.308c1.048-1.21 2.045-2.714 2.119-4.454.05-1.215-.274-2.2-.783-3.011.285.845.244 1.88-.72 2.846 0 0 1.92-2.207-.764-4.471-.763-.612-1.577-1.058-2.201-1.4-.255-.14-.48-.262-.655-.371 2.187.684 3.255-.07 3.255-.07-.699.581-1.603.572-2.163.488.152.07.31.146.48.233 1.844.96 3.5 2.543 3.784 4.732h-.001zM8.836 20.12c-2.798 0-2.727-2.303-2.727-2.303s-.195.682-.974.86a1.196 1.196 0 01-.29.033c-.252 0-.47-.056-.47-.056s.407-.828.002-1.985c-.335-.96-.28-1.672-.28-1.672s-.376.547-1.312.552h-.01a1.362 1.362 0 01-.634-.146 1.297 1.297 0 01-.483-.42c1.864-.743 1.682-3.141 1.682-3.141s-.244.173-.715.19h-.05c-1.028 0-1.376-1.056-1.376-1.056h.02c.19 0 1.717-.042 2.796-1.36l.092-.111c.672-.82 1.252-1.53 2.352-1.817l.115-.02.025-.11c.032-.168-.088-.326-.361-.497-1.588-.997-.51-2.27-.51-2.27s.451 1.017 1.468 1.017h.075l.027-.002c.105-.006.208-.01.31-.032l.188-.035s-.29-.755.41-1.448c.526-.524 1.165-.613 1.535-.613.187 0 .303.024.303.024-.35.44-.603 1.17-.199 1.62.136.15.347.245.554.338.33.148.65.291.65.645 0 .245-.238.53-.664.786-1.286.776-2.561 1.808-3.092 3.189-.662 1.722.085 2.866 1.152 3.522 0 0-.336.295-.82.332a3.063 3.063 0 01-.287.014c-1.022 0-1.55-.46-1.55-.46s.087.636.616 1.227c.495.545 1.139.866 2.123.88 0 0 .031.438-.404.816-.28.24-.923.318-.923.318s1.206.235 1.339 1.943c.072.927.317 1.248.317 1.248h-.02zm.297-.184l-.001-.002c-.016-.026-.198-.327-.258-1.085-.074-.948-.446-1.5-.815-1.818.107-.049.205-.108.288-.18.542-.467.519-1.017.515-1.077l-.02-.297-.31-.004c-.827-.014-1.404-.25-1.872-.77a2.49 2.49 0 01-.268-.364c.258.075.573.132.946.132.1 0 .205-.006.314-.013a1.894 1.894 0 001.02-.417l.322-.284-.368-.226c-.822-.505-1.663-1.461-1.017-3.139.418-1.09 1.385-2.079 2.956-3.025.53-.322.82-.7.82-1.062 0-.558-.486-.78-.843-.936l-.031-.014c-.164-.076-.33-.151-.412-.243-.276-.307-.044-.895.213-1.214l.329-.413-.532-.101-.012-.002a2.378 2.378 0 00-.356-.025c-.398 0-1.157.092-1.777.709-.516.512-.584 1.057-.558 1.41l-.12.007-.033.002h-.057c-.777 0-1.145-.79-1.159-.822l-.219-.494-.353.416-.003.004c-.044.055-.53.661-.408 1.417.083.515.42.96 1 1.325.063.04.107.072.138.1-1.09.34-1.698 1.083-2.34 1.865l-.007.009-.093.111c-.984 1.203-2.378 1.238-2.544 1.238l-.475-.014.145.433c.017.053.437 1.283 1.698 1.283l.06-.002c.134-.003.253-.02.36-.04-.052.67-.31 1.91-1.468 2.371l-.354.141.192.32c.023.037.454.726 1.422.726a2.24 2.24 0 001.003-.227c.038.304.116.693.268 1.13.348.99.034 1.69.012 1.738v.002l-.174.351.393.1c.026.007.268.065.554.065.394.001.774-.133 1.073-.378.107.316.29.672.608.988.54.532 1.317.801 2.333.801l.615-.007-.34-.5v.001zM3.992 7.094c-.236 0-.51.078-.77.333-.81.792-1.565.836-1.565.836.136.292.534.547.946.547a.867.867 0 00.284-.045c.258-.083.44-.299.657-.556.254-.302.557-.66 1.085-.93 0 0-.275-.185-.638-.185zm-.997 1.977a1.23 1.23 0 01-.392.06c-.525 0-1.052-.308-1.253-.736l-.2-.428.487-.028c.022 0 .648-.056 1.346-.739a1.42 1.42 0 011.01-.428c.438 0 .766.202.824.237l.006.004.448.303-.483.249c-.467.239-.737.558-.977.841l-.006.007-.007.008c-.233.275-.456.54-.803.65zM4.8 12.876c-.052-1.215.273-2.2.781-3.011-.283.845-.244 1.88.722 2.846 0 0-1.921-2.207.765-4.471.762-.612 1.576-1.058 2.2-1.4.255-.14.478-.262.653-.371-2.186.684-3.253-.07-3.253-.07.697.581 1.601.572 2.162.488l-.026.012c-.144.068-.295.139-.454.221-1.845.96-3.5 2.543-3.784 4.732v-.017c-.429 2.151-1.382 2.703-1.382 2.703.759-.36 1.236-1.313 1.352-1.656.127 1.89 1.088 3.202 2.212 4.465.583.654.788 1.291.788 1.291s-.113-.721-.62-1.308c-1.047-1.21-2.043-2.714-2.116-4.454zm7.354-8.795l1.848.7 1.848-.7c-.157-.357-.881-.661-1.848-.662-.965.001-1.69.305-1.847.662h-.001zm1.984 3.522l1.241-.628.443-2.464-1.684.55v2.542zm2.579.364l-.569-.317-.583-.32-1.559.814-.004-.004-.003.004-1.56-.815-.582.321-.57.317h-.005l-.145.08c.306.079.582.24.796.464.046.046.091.098.136.15v.002a4.31 4.31 0 01.148.196l.016.02.012.017c.046.067.09.137.134.21.404.668 1.05 1.068 1.623 1.069.573 0 1.219-.4 1.623-1.07.044-.073.09-.145.136-.213l.022-.029c.039-.058.08-.114.125-.168l.016-.02.01-.012c.045-.054.092-.106.14-.154l.009-.01.012-.011c.207-.202.451-.356.772-.442l-.143-.08h-.008zm1.439 2.962c0-.346.105-.695.232-1.016h-2.913c-.447.423-.875.581-1.257.618-.07.007-.14.01-.21.01h-.01c-.141 0-.281-.014-.419-.042a.729.729 0 00.035.485c.08.172.245.3.485.385l.08.03.002.084c0 .024.02.566.633.715l.024-.023c.09-.09.172-.171.235-.24-.125-.284-.06-.573.123-.715-.008.03-.089.74.504 1.004l.098.043-.03.1c-.009.03-.206.718.511.973l.127.046-.056.119c-.013.027-.294.65.369 1.004h1.438v-1.096c-.511-.06-.728-.454-.784-.734-.237-.039-.421-.138-.548-.298a.622.622 0 01-.047-.732l.009-.017c0 .004 0 .374.239.604.118.11.259.196.47.216l.105.009.01.102c.002.021.058.525.546.604l-.002-2.238zm-1.403 7.932l-.161.803c.958-.226 1.567-.92 1.567-1.915l-.002-3H9.849v3c0 1.227.926 1.995 2.29 1.995 1.14 0 1.441.043 1.865.446.293-.28.535-.384 1.03-.423l.012-.047.263-.776c-.015-.018-.442-.485-.442-.485-.17.055-.314.063-.553.063a4.69 4.69 0 01-.825-.08.397.397 0 00-.087-.01c-.036 0-.039.002-.048.02l-.052.082-.096.151-.18-.04-.797-.18-.109.173.017.02.096.101-.043.135c-.059.174-.249.379-.307.434l-.199.205-.181-.22-.136-.164c-.144-.154-.177-.39-.096-.637a.015.015 0 01-.01.003l-.224.09-.1-.212-.071-.148a.7.7 0 01-.036-.483.73.73 0 01.287-.398l.642-.347.611.114c.007-.025.015-.078.023-.134.01-.07.022-.146.03-.174l-.01-.002-.024-.003-.352.127-.339-.225s-.133-.123-.013-.245l.33-.478-.833-1.003 1.28.504.084-.1.173-.2.196.179a.35.35 0 01.103.178c.352.132.985.52 1.04 1.153l-.197.076v.004a.257.257 0 00.094.075l.914.087a1.251 1.251 0 01.085-.023 1.52 1.52 0 01.486-.091c.164 0 .322.035.476.105a.747.747 0 01.207-.04l.043-.002c.489 0 .732.35.927.63.033.05.065.095.099.14.17.232.394.569.403.584l.1.151-.122.138a.618.618 0 01-.483.23.974.974 0 01-.166-.017.73.73 0 01-.145-.043 3.768 3.768 0 01-.019.111l-.007.038zm-5.235-.789l-.044-.104c-.03-.067-.026-.14.033-.18l.35-.233.584.108s-.107-.127-.096-.296l-.557-.113-.526.306a.49.49 0 00-.188.264.471.471 0 00.021.32l.07.147s.324-.129.353-.219zm4.807 1.64l.178-.896c.021-.099.04-.23.04-.23a2.642 2.642 0 00-.039-.036 1.445 1.445 0 01-.292-.346.817.817 0 01-.094-.32 1.342 1.342 0 00-.082-.339s.037-.07.119-.07c.013 0 .027.001.041.005.11.03.184.207.268.407.113.271.245.584.504.63.044.01.085.012.12.012.131 0 .208-.053.292-.148 0 0-.227-.342-.395-.572a4.033 4.033 0 01-.105-.147c-.183-.262-.362-.52-.715-.52l-.032.001a.434.434 0 00-.223.071.892.892 0 00-.472-.137c-.16 0-.3.044-.407.078a.636.636 0 01-.162.038h-.003l-.936-.089c-.147-.013-.263-.155-.305-.21a.215.215 0 01-.015-.024c0-.025 0-.05-.002-.072-.031-.734-.624-1.05-.836-1.054 0 0 .025-.14-.031-.193l-.207.24-.678-.326.484.542-.41.441c-.05.05-.044.118-.023.147l.177.15.224-.13c.011-.008.032-.01.057-.01.028 0 .064.002.101.006.045.004.092.008.137.008.092 0 .17-.018.18-.1a1.697 1.697 0 01-.071.293c-.076.255-.168.565-.047.824l.128.281-.828-.115-.387.629c-.12.209-.139.434-.024.557l.145.175s.204-.207.25-.343l-.067-.07c-.055-.058-.052-.11-.018-.173l.243-.386.977.22.051-.085c.067-.106.163-.137.266-.137.045 0 .088.005.134.012.181.035.48.08.778.08.328 0 .653-.056.825-.242.182.258.46.405.678.521.209.111.365.194.337.319l-.188.862c.124-.005.245-.013.36-.029zm-1.03.04a8.81 8.81 0 01.347-.005s.301-.844.318-.87c-.223-.1-.441-.21-.653-.332.03.042.071.085.114.13.088.09.178.181.149.258l-.274.819zm-3.69-8.814l-.04 1.425.17.024.412-1.367-.209-.42-.333.338zm.421 2.09a.575.575 0 01-.22-.224c-.063-.127-.152-.186-.283-.186-.17 0-.351.098-.43.144-.062.352.208.67.39.734.163.058.362.07.465.07l.003-.01a1.15 1.15 0 00.035-.124 2.5 2.5 0 00.04-.404zm2.482.963c.24-.16.9-.623 1.155-.804a1.044 1.044 0 01-.162-.79 1.149 1.149 0 01-.29-.25c-.298.304-.604.6-.917.89l-.037.036-.037.035-1.937-.03a1.851 1.851 0 01-.079.516l2.305.397zm-1.172-3.56a2.257 2.257 0 01-.806-.519H9.619c.125.322.23.67.23 1.017v3.579h6.462a.965.965 0 01-.235-.987 1.09 1.09 0 01-.241-.153c-.252.179-1.023.717-1.225.853l-.043.028-2.536-.44h-.051a2.27 2.27 0 01-.248-.014.237.237 0 01-.103.144.256.256 0 01-.268.005.24.24 0 01-.071-.064.23.23 0 01-.044-.179l.01-.053c-.262-.176-.503-.572-.396-.988l.01-.044.037-.025c.005-.004.048-.033.115-.069l-.184-.027a.129.129 0 01-.083-.048.119.119 0 01-.023-.09.127.127 0 01.145-.101l.44.067.04-1.484.653-.663.407.824-.43 1.426.388.06a.127.127 0 01.082.049.117.117 0 01-.02.162.128.128 0 01-.082.028h-.02l-.315-.05a.06.06 0 00.007.011l.007.013a.341.341 0 00.152.135l1.933.03c.081-.077.285-.268.493-.47a1.045 1.045 0 01-.462-.321.978.978 0 01-.216-.506c-.265-.11-.45-.272-.55-.483a.974.974 0 01-.047-.653zm.53-5.37l-1.686-.55.446 2.464 1.241.628V5.061zm.14-2.035c1.2 0 2.289.558 2.289 1.179l-.024.152L15.794 7l.478.268 1.25.699h-.006s.282.138.41.223c.477.316.576.778.301.969-.069-.377-.378-.77-.958-.77-.419 0-.737.205-.997.517a3.028 3.028 0 00-.186.252c-.068.106-.14.21-.216.31h3.211c-.236.455-.461.937-.461 1.461v6.82c0 1.65-1.32 2.439-2.752 2.439h-.236c-.896-.004-1.066-.005-1.628.535-.563-.54-.733-.539-1.63-.535h-.235c-1.43 0-2.753-.788-2.753-2.439v-6.82c0-.524-.224-1.006-.46-1.461h3.21a4.876 4.876 0 01-.216-.31 2.463 2.463 0 00-.188-.252c-.256-.31-.575-.517-.993-.517-.58 0-.891.393-.959.77-.275-.191-.175-.653.3-.97.13-.084.41-.222.41-.222h-.004l1.246-.7.482-.267-.48-2.643-.023-.152c0-.62 1.088-1.179 2.289-1.179h.007zm-.915 2.843c.187.144.304.18.328.187l.004.001.082.037v-.41l-.767-.309s.007.237.352.494zm.28 2.575v.435c.156-.183.456-.146.456-.146v.626s-.01.309-.123.441h.652c-.113-.132-.124-.44-.124-.44v-.627s.302-.037.457.146v-.435h-1.32.002zm1.896-3.069s-.007.237-.354.494a1.05 1.05 0 01-.328.187l-.004.001-.08.037v-.41l.765-.309h.001zM12.42 16.127a.078.078 0 01.029-.056.085.085 0 01.061-.02.083.083 0 01.081.086.081.081 0 01-.029.056.088.088 0 01-.061.02.084.084 0 01-.078-.054.077.077 0 01-.004-.032h.001z" fill="#000"/></g><defs><clipPath id="clip0_1_3108"><path fill="#fff" d="M0 0h28v24H0z"/></clipPath></defs></svg>