<svg width="25" height="24" fill="none" xmlns="http://www.w3.org/2000/svg"><g clip-path="url(#clip0_154_2094)" fill="#C1C1CD"><path d="M12.78 2.16c3.206 0 3.585.015 4.846.071 1.172.052 1.805.249 2.227.413.557.215.96.478 1.378.895.422.422.68.82.895 1.378.164.422.361 1.06.413 2.227.056 1.265.07 1.645.07 4.847 0 3.206-.014 3.586-.07 4.846-.052 1.172-.249 1.805-.413 2.227a3.714 3.714 0 01-.895 1.378 3.69 3.69 0 01-1.378.895c-.422.165-1.06.361-2.227.413-1.266.056-1.645.07-4.847.07-3.206 0-3.586-.014-4.847-.07-1.171-.052-1.804-.248-2.226-.413a3.71 3.71 0 01-1.378-.895 3.691 3.691 0 01-.896-1.378c-.164-.422-.36-1.06-.412-2.227-.056-1.265-.07-1.645-.07-4.846 0-3.207.014-3.586.07-4.847.051-1.172.248-1.805.412-2.227.216-.558.479-.96.896-1.378a3.68 3.68 0 011.378-.895c.422-.164 1.06-.361 2.226-.413 1.261-.056 1.641-.07 4.847-.07zm0-2.16C9.52 0 9.113.014 7.833.07c-1.275.057-2.152.263-2.91.558a5.857 5.857 0 00-2.13 1.388 5.88 5.88 0 00-1.387 2.123c-.294.764-.5 1.636-.556 2.911C.793 8.334.78 8.742.78 12s.013 3.666.07 4.945c.056 1.275.262 2.152.557 2.911.31.792.718 1.463 1.388 2.128a5.866 5.866 0 002.123 1.383c.764.296 1.636.502 2.911.558 1.28.056 1.688.07 4.946.07 3.257 0 3.665-.014 4.945-.07 1.275-.056 2.152-.262 2.91-.558a5.866 5.866 0 002.124-1.383 5.866 5.866 0 001.383-2.123c.295-.764.502-1.636.558-2.911.056-1.28.07-1.688.07-4.945 0-3.258-.014-3.666-.07-4.946-.056-1.275-.263-2.151-.558-2.91a5.62 5.62 0 00-1.373-2.133A5.867 5.867 0 0020.64.633C19.876.338 19.004.13 17.73.075 16.444.015 16.036 0 12.78 0z"/><path d="M12.78 5.836A6.166 6.166 0 006.614 12a6.166 6.166 0 006.164 6.164A6.166 6.166 0 0018.943 12a6.166 6.166 0 00-6.164-6.164zm0 10.162a3.999 3.999 0 110-7.998 3.999 3.999 0 010 7.998zm7.846-10.406a1.44 1.44 0 11-2.879 0 1.44 1.44 0 012.88 0z"/></g><defs><clipPath id="clip0_154_2094"><path fill="#fff" transform="translate(.78)" d="M0 0h24v24H0z"/></clipPath></defs></svg>