<svg width="48" height="48" fill="none" xmlns="http://www.w3.org/2000/svg"><g clip-path="url(#clip0_41_145)"><circle cx="24" cy="24" r="23" fill="#5B35D5" stroke="#5B35D5" stroke-width="2"/><path fill-rule="evenodd" clip-rule="evenodd" d="M45.968 25.2h-8.784c-.092 3.402-.574 6.617-1.366 9.502 2.017.769 3.871 1.73 5.512 2.852A21.894 21.894 0 0045.968 25.2zm-5.95 13.88a24.57 24.57 0 00-4.788-2.462c-1.204 3.538-2.9 6.463-4.915 8.462a22 22 0 009.703-6zm-6.095-5.03c.721-2.667 1.17-5.66 1.26-8.85H12.817c.09 3.19.539 6.183 1.26 8.85 3.05-.935 6.406-1.45 9.923-1.45 3.517 0 6.874.515 9.923 1.45zM14.66 35.965C17.507 35.09 20.666 34.6 24 34.6c3.334 0 6.493.49 9.34 1.364a25.35 25.35 0 01-1.759 4.043C29.344 44.074 26.58 46 24 46c-2.579 0-5.344-1.926-7.581-5.993a25.35 25.35 0 01-1.76-4.043zm-2.478-1.262c-.792-2.885-1.274-6.1-1.366-9.502H2.032A21.894 21.894 0 006.67 37.554c1.64-1.122 3.495-2.084 5.512-2.852zm-4.2 4.379a24.567 24.567 0 014.788-2.463c1.204 3.538 2.9 6.463 4.915 8.462a22 22 0 01-9.703-6zM45.968 22.8h-8.784c-.08-2.979-.46-5.814-1.085-8.41 2.151-.846 4.111-1.911 5.819-3.159a21.884 21.884 0 014.05 11.569zm-10.785 0a38.897 38.897 0 00-.98-7.738C31.08 16.052 27.625 16.6 24 16.6c-3.625 0-7.08-.547-10.203-1.539a38.891 38.891 0 00-.98 7.739h22.366zm5.5-13.143c-1.497 1.085-3.216 2.027-5.11 2.79-1.216-4.016-3.045-7.33-5.258-9.527a22.015 22.015 0 0110.367 6.737zM48 24C48 10.745 37.255 0 24 0h-.005C10.742.003 0 10.747 0 24c0 13.255 10.745 24 24 24s24-10.745 24-24zM7.318 9.657A22.015 22.015 0 0117.685 2.92c-2.213 2.196-4.042 5.511-5.258 9.527-1.894-.763-3.613-1.705-5.11-2.79zM24 14.6c-3.471 0-6.752-.53-9.689-1.474.572-1.91 1.285-3.637 2.108-5.133C18.653 3.93 21.416 2.003 23.992 2H24c2.579 0 5.344 1.926 7.581 5.993.823 1.496 1.536 3.223 2.108 5.133C30.75 14.07 27.47 14.6 24 14.6zM6.082 11.232c1.708 1.247 3.668 2.312 5.819 3.158-.625 2.596-1.004 5.431-1.085 8.41H2.032a21.885 21.885 0 014.05-11.569z" fill="#3A2876"/><path d="M30.93 22.886c1.628-.817 2.646-2.256 2.408-4.654-.32-3.276-3.192-4.375-6.816-4.688L26.52 9h-2.809v4.425c-.74 0-1.493.014-2.242.03L21.468 9h-2.806v4.543c-.609.012-1.206.024-1.79.024v-.014H13v2.953s2.075-.038 2.04 0c1.138 0 1.509.65 1.616 1.212v12.45c-.05.352-.26.915-1.055.916.036.032-2.043 0-2.043 0L13 34.387h3.654c.68 0 1.35.011 2.006.016L18.664 39l2.805.001v-4.548c.77.016 1.516.023 2.243.022V39h2.808l.002-4.588c4.72-.267 8.026-1.439 8.437-5.807.33-3.516-1.35-5.085-4.03-5.72zm-9.393-6.18c1.584 0 6.565-.497 6.566 2.763 0 3.125-4.98 2.76-6.566 2.76v-5.523zm-.002 14.4l.002-6.089c1.903 0 7.872-.54 7.873 3.043 0 3.436-5.97 3.045-7.875 3.047z" fill="#EEEFF8"/></g><defs><clipPath id="clip0_41_145"><path fill="#fff" d="M0 0h48v48H0z"/></clipPath></defs></svg>