<svg width="191" height="19" fill="none" xmlns="http://www.w3.org/2000/svg"><path d="M6.04 15.2c-1.253 0-2.32-.207-3.2-.62a4.74 4.74 0 01-2.02-1.84c-.48-.813-.747-1.8-.8-2.96a77.531 77.531 0 010-3.56C.073 5.073.34 4.1.82 3.3a4.804 4.804 0 012.06-1.86C3.76 1.013 4.813.8 6.04.8c.893 0 1.707.113 2.44.34a5.7 5.7 0 011.9.98c.533.427.947.927 1.24 1.5.293.573.453 1.213.48 1.92a.38.38 0 01-.14.3c-.08.08-.18.12-.3.12H9.38A.565.565 0 019 5.84c-.093-.08-.167-.213-.22-.4-.2-.787-.533-1.327-1-1.62-.467-.293-1.047-.44-1.74-.44-.827 0-1.48.227-1.96.68-.48.453-.74 1.207-.78 2.26a47.048 47.048 0 000 3.36c.04 1.053.3 1.807.78 2.26.48.453 1.133.68 1.96.68.693 0 1.273-.147 1.74-.44.48-.307.813-.847 1-1.62.053-.2.127-.333.22-.4.093-.08.22-.12.38-.12h2.28c.12 0 .22.04.3.12.093.08.14.18.14.3a4.539 4.539 0 01-.48 1.92 4.586 4.586 0 01-1.24 1.5 5.7 5.7 0 01-1.9.98c-.733.227-1.547.34-2.44.34zm8.567-.2a.463.463 0 01-.34-.14.487.487 0 01-.14-.36V5.1c0-.133.047-.247.14-.34a.436.436 0 01.34-.16h1.96c.134 0 .247.053.34.16.107.093.16.207.16.34v.8c.334-.413.74-.733 1.22-.96.494-.227 1.06-.34 1.7-.34h.86c.133 0 .247.047.34.14.093.093.14.213.14.36v1.72a.487.487 0 01-.14.36.463.463 0 01-.34.14h-1.76c-.587 0-1.046.167-1.38.5-.333.32-.5.78-.5 1.38v5.3a.487.487 0 01-.14.36.487.487 0 01-.36.14h-2.1zm10.112 3.8a.453.453 0 01-.3-.12.407.407 0 01-.1-.42c.013-.04.033-.093.06-.16l1.56-3.74-3.84-9.06a.783.783 0 01-.06-.26c.013-.12.06-.22.14-.3a.38.38 0 01.3-.14h1.94c.173 0 .3.047.38.14.08.08.14.167.18.26l2.48 6.2 2.54-6.2c.053-.107.12-.2.2-.28.08-.08.206-.12.38-.12h1.9c.12 0 .22.047.3.14a.36.36 0 01.14.28c0 .067-.027.16-.08.28l-5.66 13.1a.68.68 0 01-.2.28c-.08.08-.207.12-.38.12h-1.88zm10.299 0a.487.487 0 01-.36-.14.487.487 0 01-.14-.36V5.1c0-.147.047-.267.14-.36a.487.487 0 01.36-.14h1.9c.147 0 .267.047.36.14.093.093.14.213.14.36v.76a3.64 3.64 0 011.24-1.04c.506-.28 1.14-.42 1.9-.42.693 0 1.293.113 1.8.34.52.213.953.527 1.3.94.36.4.633.887.82 1.46.2.573.313 1.22.34 1.94a13.766 13.766 0 010 1.46 6.035 6.035 0 01-.32 1.88 4.205 4.205 0 01-.82 1.48c-.36.413-.8.733-1.32.96-.507.227-1.107.34-1.8.34-.68 0-1.273-.12-1.78-.36a3.497 3.497 0 01-1.22-1.02v4.48a.487.487 0 01-.14.36.463.463 0 01-.34.14h-2.06zm4.64-6c.506 0 .907-.107 1.2-.32.293-.227.5-.52.62-.88.133-.36.213-.753.24-1.18a9.608 9.608 0 000-1.24 4.124 4.124 0 00-.24-1.18 1.697 1.697 0 00-.62-.86c-.293-.227-.694-.34-1.2-.34-.494 0-.894.113-1.2.34a1.9 1.9 0 00-.66.86 3.81 3.81 0 00-.24 1.12 13.377 13.377 0 000 1.5c.013.373.093.727.24 1.06.16.32.386.587.68.8.306.213.7.32 1.18.32zM51.9 15c-.827 0-1.534-.133-2.12-.4a2.9 2.9 0 01-1.34-1.28c-.294-.573-.44-1.293-.44-2.16v-4.2h-1.56a.488.488 0 01-.36-.14.487.487 0 01-.14-.36V5.1c0-.147.046-.267.14-.36a.488.488 0 01.36-.14H48V1.3c0-.147.046-.267.14-.36A.533.533 0 0148.5.8h1.96a.49.49 0 01.36.14c.093.093.14.213.14.36v3.3h2.5c.133 0 .246.047.34.14.093.093.14.213.14.36v1.36a.487.487 0 01-.14.36.463.463 0 01-.34.14h-2.5v3.96c0 .507.086.907.26 1.2.186.28.506.42.96.42h1.46c.133 0 .246.047.34.14.093.093.14.207.14.34v1.48a.487.487 0 01-.14.36.463.463 0 01-.34.14H51.9zm8.724.2c-1.106 0-2.033-.18-2.78-.54-.746-.373-1.32-.9-1.72-1.58-.386-.68-.6-1.473-.64-2.38-.013-.267-.02-.567-.02-.9 0-.347.007-.647.02-.9.04-.92.267-1.713.68-2.38.414-.68.994-1.2 1.74-1.56.747-.373 1.654-.56 2.72-.56 1.054 0 1.954.187 2.7.56.747.36 1.327.88 1.74 1.56.414.667.64 1.46.68 2.38.027.253.04.553.04.9 0 .333-.013.633-.04.9-.04.907-.26 1.7-.66 2.38-.386.68-.953 1.207-1.7 1.58-.746.36-1.666.54-2.76.54zm0-2.2c.654 0 1.147-.2 1.48-.6.334-.413.514-1.013.54-1.8.014-.2.02-.467.02-.8s-.006-.6-.02-.8c-.026-.773-.206-1.367-.54-1.78-.333-.413-.826-.62-1.48-.62-.653 0-1.153.207-1.5.62-.333.413-.513 1.007-.54 1.78-.013.2-.02.467-.02.8s.007.6.02.8c.027.787.207 1.387.54 1.8.347.4.847.6 1.5.6z" fill="#5B35D5"/><path d="M73.137 15.2c-1.28 0-2.353-.187-3.22-.56-.853-.373-1.5-.86-1.94-1.46-.44-.6-.673-1.24-.7-1.92 0-.107.04-.2.12-.28a.38.38 0 01.3-.14h2.14c.173 0 .307.04.4.12.094.067.18.153.26.26a2.2 2.2 0 00.44.66c.213.213.5.393.86.54.36.133.807.2 1.34.2.867 0 1.513-.14 1.94-.42.44-.28.66-.66.66-1.14 0-.347-.12-.627-.36-.84-.227-.213-.593-.407-1.1-.58a21.391 21.391 0 00-1.98-.56c-1-.213-1.853-.487-2.56-.82-.693-.347-1.22-.787-1.58-1.32-.346-.547-.52-1.22-.52-2.02s.22-1.507.66-2.12c.44-.627 1.06-1.113 1.86-1.46.8-.36 1.754-.54 2.86-.54.894 0 1.68.12 2.36.36.694.24 1.267.553 1.72.94.467.387.82.8 1.06 1.24.24.44.367.867.38 1.28 0 .107-.04.207-.12.3-.08.08-.18.12-.3.12h-2.24a.794.794 0 01-.36-.08.595.595 0 01-.26-.28c-.08-.347-.32-.647-.72-.9-.387-.267-.893-.4-1.52-.4-.653 0-1.173.12-1.56.36-.373.24-.56.607-.56 1.1 0 .32.093.593.28.82.2.213.527.407.98.58.467.16 1.08.34 1.84.54 1.174.24 2.127.527 2.86.86.734.333 1.273.767 1.62 1.3.347.52.52 1.18.52 1.98 0 .893-.253 1.66-.76 2.3-.493.64-1.18 1.133-2.06 1.48-.867.333-1.88.5-3.04.5zm8.287 3.6a.487.487 0 01-.36-.14.487.487 0 01-.14-.36V5.1c0-.147.047-.267.14-.36a.487.487 0 01.36-.14h1.9c.147 0 .267.047.36.14.093.093.14.213.14.36v.76a3.64 3.64 0 011.24-1.04c.507-.28 1.14-.42 1.9-.42.693 0 1.293.113 1.8.34.52.213.953.527 1.3.94.36.4.633.887.82 1.46.2.573.313 1.22.34 1.94a13.766 13.766 0 010 1.46 6.038 6.038 0 01-.32 1.88 4.205 4.205 0 01-.82 1.48c-.36.413-.8.733-1.32.96-.507.227-1.107.34-1.8.34-.68 0-1.273-.12-1.78-.36a3.497 3.497 0 01-1.22-1.02v4.48a.487.487 0 01-.14.36.463.463 0 01-.34.14h-2.06zm4.64-6c.507 0 .907-.107 1.2-.32.293-.227.5-.52.62-.88.133-.36.213-.753.24-1.18a9.644 9.644 0 000-1.24 4.124 4.124 0 00-.24-1.18 1.697 1.697 0 00-.62-.86c-.293-.227-.693-.34-1.2-.34-.493 0-.893.113-1.2.34a1.9 1.9 0 00-.66.86c-.133.347-.213.72-.24 1.12a13.28 13.28 0 000 1.5c.013.373.093.727.24 1.06.16.32.387.587.68.8.307.213.7.32 1.18.32zm7.802 2.2a.487.487 0 01-.36-.14.487.487 0 01-.14-.36V1.3c0-.147.046-.267.14-.36a.487.487 0 01.36-.14h2.16c.133 0 .246.047.34.14.093.093.14.213.14.36v4.5c.36-.427.8-.767 1.32-1.02s1.146-.38 1.88-.38c.786 0 1.479.18 2.079.54.614.347 1.094.86 1.44 1.54.347.667.52 1.48.52 2.44v5.58a.485.485 0 01-.14.36.486.486 0 01-.36.14h-2.18a.465.465 0 01-.34-.14.489.489 0 01-.14-.36V9.04c0-.707-.173-1.253-.52-1.64-.346-.4-.84-.6-1.48-.6-.626 0-1.133.2-1.52.6-.373.387-.56.933-.56 1.64v5.46a.487.487 0 01-.14.36.463.463 0 01-.34.14h-2.16zm16.913.2c-1.533 0-2.753-.427-3.66-1.28-.893-.853-1.367-2.093-1.42-3.72v-.86c.053-1.027.287-1.907.7-2.64a4.11 4.11 0 011.74-1.7c.747-.4 1.62-.6 2.62-.6 1.12 0 2.053.233 2.8.7a4.22 4.22 0 011.7 1.88c.387.787.58 1.693.58 2.72v.46a.435.435 0 01-.16.34.463.463 0 01-.34.14h-6.54v.16c.013.427.093.82.24 1.18.16.347.38.627.66.84.293.213.64.32 1.04.32.333 0 .607-.047.82-.14.213-.093.387-.207.52-.34a2.32 2.32 0 00.32-.34c.12-.133.213-.213.28-.24.08-.04.2-.06.36-.06h2.08c.133 0 .24.04.32.12.093.067.133.167.12.3-.013.213-.127.48-.34.8-.2.307-.5.613-.9.92-.4.293-.9.54-1.5.74-.587.2-1.267.3-2.04.3zm-1.98-6.38h3.92v-.04c0-.48-.08-.893-.24-1.24a1.82 1.82 0 00-.66-.84c-.293-.2-.647-.3-1.06-.3-.413 0-.767.1-1.06.3-.293.2-.52.48-.68.84-.147.347-.22.76-.22 1.24v.04zm9.519 6.18a.463.463 0 01-.34-.14.489.489 0 01-.14-.36V5.1c0-.133.047-.247.14-.34a.436.436 0 01.34-.16h1.96c.133 0 .247.053.34.16.107.093.16.207.16.34v.8c.333-.413.74-.733 1.22-.96.493-.227 1.06-.34 1.7-.34h.86c.133 0 .247.047.34.14.093.093.14.213.14.36v1.72a.489.489 0 01-.14.36.463.463 0 01-.34.14h-1.76c-.587 0-1.047.167-1.38.5-.333.32-.5.78-.5 1.38v5.3a.489.489 0 01-.14.36.486.486 0 01-.36.14h-2.1zm12.734.2c-1.533 0-2.753-.427-3.66-1.28-.893-.853-1.366-2.093-1.42-3.72v-.86c.054-1.027.287-1.907.7-2.64a4.121 4.121 0 011.74-1.7c.747-.4 1.62-.6 2.62-.6 1.12 0 2.054.233 2.8.7a4.22 4.22 0 011.7 1.88c.387.787.58 1.693.58 2.72v.46a.435.435 0 01-.16.34.461.461 0 01-.34.14h-6.54v.16c.014.427.094.82.24 1.18.16.347.38.627.66.84.294.213.64.32 1.04.32.334 0 .607-.047.82-.14.214-.093.387-.207.52-.34.147-.133.254-.247.32-.34.12-.133.214-.213.28-.24.08-.04.2-.06.36-.06h2.08c.134 0 .24.04.32.12.094.067.134.167.12.3-.013.213-.126.48-.34.8-.2.307-.5.613-.9.92-.4.293-.9.54-1.5.74-.586.2-1.266.3-2.04.3zm-1.98-6.38h3.92v-.04c0-.48-.08-.893-.24-1.24a1.807 1.807 0 00-.66-.84c-.293-.2-.646-.3-1.06-.3-.413 0-.766.1-1.06.3-.293.2-.52.48-.68.84-.146.347-.22.76-.22 1.24v.04zM143.246 15a.486.486 0 01-.36-.14.485.485 0 01-.14-.36v-13c0-.147.046-.267.14-.36a.486.486 0 01.36-.14h5.94c1.106 0 2.013.16 2.72.48.706.32 1.226.773 1.56 1.36.346.587.52 1.273.52 2.06 0 .493-.094.927-.28 1.3-.174.373-.394.68-.66.92-.254.24-.5.42-.74.54.52.24.973.64 1.36 1.2.4.547.6 1.2.6 1.96 0 .84-.187 1.573-.56 2.2-.374.627-.927 1.113-1.66 1.46-.734.347-1.627.52-2.68.52h-6.12zm2.68-2.34h3.06c.653 0 1.146-.18 1.48-.54.333-.373.5-.813.5-1.32 0-.52-.174-.953-.52-1.3-.334-.36-.82-.54-1.46-.54h-3.06v3.7zm0-6h2.88c.626 0 1.093-.153 1.4-.46.32-.32.48-.727.48-1.22s-.16-.887-.48-1.18c-.307-.307-.774-.46-1.4-.46h-2.88v3.32zm13.566 8.54c-.707 0-1.34-.133-1.9-.4a3.572 3.572 0 01-1.34-1.12 2.624 2.624 0 01-.5-1.56c0-.947.38-1.693 1.14-2.24.773-.547 1.787-.92 3.04-1.12l2.62-.38v-.36c0-.52-.12-.92-.36-1.2-.24-.28-.66-.42-1.26-.42-.44 0-.793.087-1.06.26-.267.173-.473.4-.62.68a.51.51 0 01-.46.26h-1.9c-.147 0-.26-.04-.34-.12a.405.405 0 01-.1-.32c0-.227.087-.493.26-.8.173-.307.44-.607.8-.9.36-.307.82-.56 1.38-.76.56-.2 1.247-.3 2.06-.3.84 0 1.56.1 2.16.3.6.2 1.08.48 1.44.84.36.36.627.78.8 1.26.173.467.26.973.26 1.52v6.18a.489.489 0 01-.14.36.486.486 0 01-.36.14h-1.96a.463.463 0 01-.34-.14.489.489 0 01-.14-.36v-.74a3.226 3.226 0 01-.7.72 3.743 3.743 0 01-1.06.52c-.4.133-.873.2-1.42.2zm.8-2.08c.44 0 .833-.093 1.18-.28a1.97 1.97 0 00.82-.86c.2-.387.3-.873.3-1.46v-.34l-1.86.3c-.72.12-1.247.3-1.58.54-.333.24-.5.533-.5.88 0 .253.073.473.22.66.16.187.367.327.62.42.253.093.52.14.8.14zm8.221 1.88a.465.465 0 01-.34-.14.489.489 0 01-.14-.36V5.1c0-.147.047-.267.14-.36a.465.465 0 01.34-.14h1.96c.147 0 .267.047.36.14.094.093.14.213.14.36v.78c.347-.427.794-.78 1.34-1.06.547-.28 1.214-.42 2-.42.787 0 1.474.18 2.06.54.6.347 1.067.86 1.4 1.54.347.667.52 1.48.52 2.44v5.58a.455.455 0 01-.16.36.461.461 0 01-.34.14h-2.12a.49.49 0 01-.36-.14.489.489 0 01-.14-.36V9.04c0-.707-.173-1.253-.52-1.64-.333-.4-.826-.6-1.48-.6-.626 0-1.126.2-1.5.6-.373.387-.56.933-.56 1.64v5.46a.485.485 0 01-.14.36.461.461 0 01-.34.14h-2.12zm12.677 0a.486.486 0 01-.36-.14.485.485 0 01-.14-.36V1.3c0-.147.046-.267.14-.36a.486.486 0 01.36-.14h1.96c.133 0 .246.047.34.14.093.093.14.213.14.36v6.76l3.08-3.12c.106-.093.2-.173.28-.24.093-.067.233-.1.42-.1h2.26a.4.4 0 01.32.14c.08.08.12.18.12.3a.505.505 0 01-.04.18.33.33 0 01-.14.16l-3.86 3.88 4.36 4.98c.12.107.18.213.18.32 0 .12-.047.227-.14.32-.08.08-.18.12-.3.12h-2.32c-.2 0-.347-.033-.44-.1-.08-.067-.174-.147-.28-.24l-3.5-3.92v3.76a.489.489 0 01-.14.36.465.465 0 01-.34.14h-1.96z" fill="#EEEFF8"/></svg>