<svg width="25" height="24" fill="none" xmlns="http://www.w3.org/2000/svg"><g clip-path="url(#clip0_154_2102)"><path fill-rule="evenodd" clip-rule="evenodd" d="M24.78 12c0 6.627-5.373 12-12 12-6.628 0-12-5.373-12-12s5.372-12 12-12c6.627 0 12 5.373 12 12zM13.21 8.859c-1.168.485-3.5 1.49-6.999 3.014-.568.226-.865.447-.893.663-.045.366.412.51 1.035.705.084.027.172.054.262.084.613.199 1.437.432 1.866.441.388.008.822-.152 1.3-.48 3.27-2.207 4.957-3.322 5.063-3.346.074-.017.178-.039.248.024.07.062.063.18.056.212-.045.193-1.84 1.862-2.77 2.726-.29.269-.495.46-.537.504-.094.097-.19.19-.282.279-.569.548-.996.96.024 1.632.49.323.882.59 1.273.856.428.291.854.581 1.405.943.14.092.275.187.405.28.497.355.944.673 1.496.623.32-.03.652-.331.82-1.23.398-2.126 1.179-6.73 1.36-8.628a2.117 2.117 0 00-.02-.472.505.505 0 00-.171-.325c-.144-.117-.366-.142-.465-.14-.452.008-1.144.249-4.477 1.635z" fill="#C1C1CD"/></g><defs><clipPath id="clip0_154_2102"><path fill="#fff" transform="translate(.78)" d="M0 0h24v24H0z"/></clipPath></defs></svg>