<svg width="25" height="24" fill="none" xmlns="http://www.w3.org/2000/svg"><path fill-rule="evenodd" clip-rule="evenodd" d="M2.466 1.687C.78 3.374.78 6.09.78 11.52v.96c0 5.43 0 8.146 1.687 9.833C4.153 24 6.87 24 12.3 24h.96c5.43 0 8.146 0 9.833-1.687 1.687-1.687 1.687-4.402 1.687-9.833v-.96c0-5.43 0-8.146-1.687-9.833C21.405 0 18.69 0 13.26 0h-.96C6.87 0 4.153 0 2.466 1.687zM4.83 7.3c.13 6.24 3.25 9.99 8.72 9.99h.31v-3.57c2.01.2 3.53 1.67 4.14 3.57h2.84c-.78-2.84-2.83-4.41-4.11-5.01 1.28-.74 3.08-2.54 3.51-4.98h-2.58c-.56 1.98-2.22 3.78-3.8 3.95V7.3h-2.58v6.92c-1.6-.4-3.62-2.34-3.71-6.92H4.83z" fill="#C1C1CD"/></svg>