<svg width="25" height="24" fill="none" xmlns="http://www.w3.org/2000/svg"><g clip-path="url(#clip0_154_2099)"><path d="M24.54 7.2s-.234-1.655-.956-2.381c-.914-.956-1.936-.961-2.405-1.017-3.356-.244-8.395-.244-8.395-.244h-.01s-5.038 0-8.395.244c-.468.056-1.49.06-2.404 1.017-.722.726-.952 2.381-.952 2.381S.779 9.145.779 11.086v1.819c0 1.94.24 3.886.24 3.886s.234 1.654.95 2.38c.915.957 2.115.924 2.65 1.027 1.921.183 8.16.24 8.16.24s5.044-.01 8.4-.249c.469-.056 1.49-.06 2.405-1.017.722-.727.956-2.381.956-2.381s.24-1.941.24-3.886v-1.819c0-1.94-.24-3.886-.24-3.886zM10.3 15.113V8.367l6.482 3.385-6.482 3.36z" fill="#C1C1CD"/></g><defs><clipPath id="clip0_154_2099"><path fill="#fff" transform="translate(.78)" d="M0 0h24v24H0z"/></clipPath></defs></svg>